<?xml version="1.0" encoding="UTF-8"?>
<svg xmlns="http://www.w3.org/2000/svg" xmlns:xlink="http://www.w3.org/1999/xlink" width="1620pt" height="1620pt" viewBox="0 0 1620 1620" version="1.1">
<g id="surface31">
<path style="fill:none;stroke-width:4.5;stroke-linecap:butt;stroke-linejoin:miter;stroke:rgb(29.472351%,40.541077%,56.782532%);stroke-opacity:1;stroke-miterlimit:3.25;" d="M 378 1260.039063 L 878.988281 1260.039063 " transform="matrix(1,0,0,1,-297,-23)"/>
<path style="fill-rule:nonzero;fill:rgb(29.472351%,40.541077%,56.782532%);fill-opacity:1;stroke-width:0.03;stroke-linecap:square;stroke-linejoin:miter;stroke:rgb(29.472351%,40.541077%,56.782532%);stroke-opacity:1;stroke-miterlimit:3.25;" d="M 868.523438 1230.195313 L 870.1875 1233.589844 L 873.824219 1241.734375 L 875.757813 1246.628906 L 877.429688 1251.566406 L 878.589844 1256.164063 L 878.988281 1260.039063 L 878.589844 1263.542969 L 877.429688 1268.082031 L 875.757813 1273.183594 L 873.824219 1278.394531 L 870.1875 1287.289063 L 868.523438 1291.074219 L 981.921875 1260.039063 Z M 868.523438 1230.195313 " transform="matrix(1,0,0,1,-297,-23)"/>
<path style="fill:none;stroke-width:4.5;stroke-linecap:butt;stroke-linejoin:miter;stroke:rgb(29.472351%,40.541077%,56.782532%);stroke-opacity:1;stroke-miterlimit:3.25;" d="M 378 833 L 878.988281 833 " transform="matrix(1,0,0,1,-297,-23)"/>
<path style="fill-rule:nonzero;fill:rgb(29.472351%,40.541077%,56.782532%);fill-opacity:1;stroke-width:0.03;stroke-linecap:square;stroke-linejoin:miter;stroke:rgb(29.472351%,40.541077%,56.782532%);stroke-opacity:1;stroke-miterlimit:3.25;" d="M 868.523438 803.15625 L 870.1875 806.550781 L 873.824219 814.695313 L 875.757813 819.589844 L 877.429688 824.53125 L 878.589844 829.125 L 878.988281 833 L 878.589844 836.507813 L 877.429688 841.042969 L 875.757813 846.144531 L 873.824219 851.355469 L 870.1875 860.25 L 868.523438 864.035156 L 981.921875 833 Z M 868.523438 803.15625 " transform="matrix(1,0,0,1,-297,-23)"/>
<path style="fill:none;stroke-width:4.5;stroke-linecap:butt;stroke-linejoin:miter;stroke:rgb(29.472351%,40.541077%,56.782532%);stroke-opacity:1;stroke-miterlimit:3.25;" d="M 378 405.960938 L 878.988281 405.960938 " transform="matrix(1,0,0,1,-297,-23)"/>
<path style="fill-rule:nonzero;fill:rgb(29.472351%,40.541077%,56.782532%);fill-opacity:1;stroke-width:0.03;stroke-linecap:square;stroke-linejoin:miter;stroke:rgb(29.472351%,40.541077%,56.782532%);stroke-opacity:1;stroke-miterlimit:3.25;" d="M 868.523438 376.121094 L 870.1875 379.511719 L 873.824219 387.65625 L 875.757813 392.554688 L 877.429688 397.492188 L 878.589844 402.089844 L 878.988281 405.960938 L 878.589844 409.46875 L 877.429688 414.003906 L 875.757813 419.105469 L 873.824219 424.316406 L 870.1875 433.210938 L 868.523438 436.996094 L 981.921875 405.960938 Z M 868.523438 376.121094 " transform="matrix(1,0,0,1,-297,-23)"/>
<path style="fill:none;stroke-width:4.5;stroke-linecap:butt;stroke-linejoin:miter;stroke:rgb(29.472351%,40.541077%,56.782532%);stroke-opacity:1;stroke-miterlimit:3.25;" d="M 805.039063 1260.039063 L 1306.027344 1260.039063 " transform="matrix(1,0,0,1,-297,-23)"/>
<path style="fill-rule:nonzero;fill:rgb(29.472351%,40.541077%,56.782532%);fill-opacity:1;stroke-width:0.03;stroke-linecap:square;stroke-linejoin:miter;stroke:rgb(29.472351%,40.541077%,56.782532%);stroke-opacity:1;stroke-miterlimit:3.25;" d="M 1295.5625 1230.195313 L 1297.222656 1233.589844 L 1300.863281 1241.734375 L 1302.792969 1246.628906 L 1304.46875 1251.566406 L 1305.628906 1256.164063 L 1306.027344 1260.039063 L 1305.628906 1263.542969 L 1304.46875 1268.082031 L 1302.792969 1273.183594 L 1300.863281 1278.394531 L 1297.222656 1287.289063 L 1295.5625 1291.074219 L 1408.960938 1260.039063 Z M 1295.5625 1230.195313 " transform="matrix(1,0,0,1,-297,-23)"/>
<path style="fill:none;stroke-width:4.5;stroke-linecap:butt;stroke-linejoin:miter;stroke:rgb(29.472351%,40.541077%,56.782532%);stroke-opacity:1;stroke-miterlimit:3.25;" d="M 805.039063 833 L 1306.027344 833 " transform="matrix(1,0,0,1,-297,-23)"/>
<path style="fill-rule:nonzero;fill:rgb(29.472351%,40.541077%,56.782532%);fill-opacity:1;stroke-width:0.03;stroke-linecap:square;stroke-linejoin:miter;stroke:rgb(29.472351%,40.541077%,56.782532%);stroke-opacity:1;stroke-miterlimit:3.25;" d="M 1295.5625 803.15625 L 1297.222656 806.550781 L 1300.863281 814.695313 L 1302.792969 819.589844 L 1304.46875 824.53125 L 1305.628906 829.125 L 1306.027344 833 L 1305.628906 836.507813 L 1304.46875 841.042969 L 1302.792969 846.144531 L 1300.863281 851.355469 L 1297.222656 860.25 L 1295.5625 864.035156 L 1408.960938 833 Z M 1295.5625 803.15625 " transform="matrix(1,0,0,1,-297,-23)"/>
<path style="fill:none;stroke-width:4.5;stroke-linecap:butt;stroke-linejoin:miter;stroke:rgb(29.472351%,40.541077%,56.782532%);stroke-opacity:1;stroke-miterlimit:3.25;" d="M 805.039063 405.960938 L 1306.027344 405.960938 " transform="matrix(1,0,0,1,-297,-23)"/>
<path style="fill-rule:nonzero;fill:rgb(29.472351%,40.541077%,56.782532%);fill-opacity:1;stroke-width:0.03;stroke-linecap:square;stroke-linejoin:miter;stroke:rgb(29.472351%,40.541077%,56.782532%);stroke-opacity:1;stroke-miterlimit:3.25;" d="M 1295.5625 376.121094 L 1297.222656 379.511719 L 1300.863281 387.65625 L 1302.792969 392.554688 L 1304.46875 397.492188 L 1305.628906 402.089844 L 1306.027344 405.960938 L 1305.628906 409.46875 L 1304.46875 414.003906 L 1302.792969 419.105469 L 1300.863281 424.316406 L 1297.222656 433.210938 L 1295.5625 436.996094 L 1408.960938 405.960938 Z M 1295.5625 376.121094 " transform="matrix(1,0,0,1,-297,-23)"/>
<path style="fill:none;stroke-width:4.5;stroke-linecap:butt;stroke-linejoin:miter;stroke:rgb(29.472351%,40.541077%,56.782532%);stroke-opacity:1;stroke-miterlimit:3.25;" d="M 1232.078125 1260.039063 L 1733.066406 1260.039063 " transform="matrix(1,0,0,1,-297,-23)"/>
<path style="fill-rule:nonzero;fill:rgb(29.472351%,40.541077%,56.782532%);fill-opacity:1;stroke-width:0.03;stroke-linecap:square;stroke-linejoin:miter;stroke:rgb(29.472351%,40.541077%,56.782532%);stroke-opacity:1;stroke-miterlimit:3.25;" d="M 1722.601563 1230.195313 L 1724.261719 1233.589844 L 1727.898438 1241.734375 L 1729.832031 1246.628906 L 1731.503906 1251.566406 L 1732.667969 1256.164063 L 1733.066406 1260.039063 L 1732.667969 1263.542969 L 1731.503906 1268.082031 L 1729.832031 1273.183594 L 1727.898438 1278.394531 L 1724.261719 1287.289063 L 1722.601563 1291.074219 L 1836 1260.039063 Z M 1722.601563 1230.195313 " transform="matrix(1,0,0,1,-297,-23)"/>
<path style="fill:none;stroke-width:4.5;stroke-linecap:butt;stroke-linejoin:miter;stroke:rgb(29.472351%,40.541077%,56.782532%);stroke-opacity:1;stroke-miterlimit:3.25;" d="M 1232.078125 833 L 1733.066406 833 " transform="matrix(1,0,0,1,-297,-23)"/>
<path style="fill-rule:nonzero;fill:rgb(29.472351%,40.541077%,56.782532%);fill-opacity:1;stroke-width:0.03;stroke-linecap:square;stroke-linejoin:miter;stroke:rgb(29.472351%,40.541077%,56.782532%);stroke-opacity:1;stroke-miterlimit:3.25;" d="M 1722.601563 803.15625 L 1724.261719 806.550781 L 1727.898438 814.695313 L 1729.832031 819.589844 L 1731.503906 824.53125 L 1732.667969 829.125 L 1733.066406 833 L 1732.667969 836.507813 L 1731.503906 841.042969 L 1729.832031 846.144531 L 1727.898438 851.355469 L 1724.261719 860.25 L 1722.601563 864.035156 L 1836 833 Z M 1722.601563 803.15625 " transform="matrix(1,0,0,1,-297,-23)"/>
<path style="fill:none;stroke-width:4.5;stroke-linecap:butt;stroke-linejoin:miter;stroke:rgb(29.472351%,40.541077%,56.782532%);stroke-opacity:1;stroke-miterlimit:3.25;" d="M 1232.078125 405.960938 L 1733.066406 405.960938 " transform="matrix(1,0,0,1,-297,-23)"/>
<path style="fill-rule:nonzero;fill:rgb(29.472351%,40.541077%,56.782532%);fill-opacity:1;stroke-width:0.03;stroke-linecap:square;stroke-linejoin:miter;stroke:rgb(29.472351%,40.541077%,56.782532%);stroke-opacity:1;stroke-miterlimit:3.25;" d="M 1722.601563 376.121094 L 1724.261719 379.511719 L 1727.898438 387.65625 L 1729.832031 392.554688 L 1731.503906 397.492188 L 1732.667969 402.089844 L 1733.066406 405.960938 L 1732.667969 409.46875 L 1731.503906 414.003906 L 1729.832031 419.105469 L 1727.898438 424.316406 L 1724.261719 433.210938 L 1722.601563 436.996094 L 1836 405.960938 Z M 1722.601563 376.121094 " transform="matrix(1,0,0,1,-297,-23)"/>
<path style="fill-rule:nonzero;fill:rgb(99.998474%,50%,50%);fill-opacity:1;stroke-width:0.03;stroke-linecap:square;stroke-linejoin:miter;stroke:rgb(99.998474%,50%,50%);stroke-opacity:1;stroke-dasharray:18,18;stroke-miterlimit:3.25;" d="M 1107 833 L 1249.347656 405.960938 L 1818.730469 405.960938 L 1676.382813 833 Z M 1107 833 " transform="matrix(1,0,0,1,-297,-23)"/>
<path style="fill:none;stroke-width:9;stroke-linecap:square;stroke-linejoin:miter;stroke:rgb(0%,0%,99.998474%);stroke-opacity:1;stroke-dasharray:18,18;stroke-miterlimit:3.25;" d="M 1107 833 L 1249.347656 405.960938 L 1818.730469 405.960938 L 1676.382813 833 Z M 1107 833 " transform="matrix(1,0,0,1,-297,-23)"/>
</g>
</svg>
